Title                            : Sherlock Holmes
Year                             : 2009
Genre                            : Action | Adventure | Crime | Mystery | Thriller
iMDB URL                         : http://www.imdb.com/title/tt0988045/
Awards                           : Nominated for 2 Oscars. Another 4 wins & 14 nominations

Complete name                    : Sherlock.Holmes.2009.BRRIP.H264-ZEKTORM.mp4
Format                           : MPEG-4
Format profile                   : Base Media
Codec ID                         : isom
File size                        : 1.66 GiB
Duration                         : 2h 8mn
Overall bit rate                 : 1851 Kbps
Subtitles                        : English, Spanish, French (Format: VobSub) / English (Format: srt)

Video
ID                               : 1
Format                           : AVC
Format/Info                      : Advanced Video Codec
Format profile                   : High@L3.0
Format settings, CABAC           : Yes
Codec ID                         : avc1
Codec ID/Info                    : Advanced Video Coding
Duration                         : 2h 8mn
Bit rate mode                    : Variable
Bit rate                         : 1545 Kbps
Width                            : 1280 pixels
Height                           : 720 pixels
Display aspect ratio             : 16/9
Frame rate mode                  : Constant
Frame rate                       : 23.976 fps
Resolution                       : 24 bits
Colorimetry                      : 4:2:0
Scan type                        : Progressive
Bits/(Pixel*Frame)               : 0.070
Stream size                      : 1.39 GiB (83%)
Title                            : Video
Writing library                  : x264

Audio #1
ID                               : 2
Format                           : AAC
Format/Info                      : Advanced Audio Codec
Format version                   : Version 4
Format profile                   : LC
Format settings, SBR             : Yes
Format settings, PS              : No
Codec ID                         : 40
Duration                         : 2h 8mn
Bit rate mode                    : Variable
Bit rate                         : 220 Kbps
Maximum bit rate                 : 278 Kbps
Channel(s)                       : 6 channels
Channel positions                : Front: L C R, Rear: L R, LFE
Sampling rate                    : 48.0 KHz
Resolution                       : 16 bits
Stream size                      : 202 MiB (12%)
Title                            : English
Language                         : English

Audio #2
ID                               : 3
Format                           : AAC
Format/Info                      : Advanced Audio Codec
Format version                   : Version 4
Format profile                   : LC
Format settings, SBR             : Yes
Format settings, PS              : No
Codec ID                         : 40
Duration                         : 2h 8mn
Bit rate mode                    : Variable
Bit rate                         : 82.7 Kbps
Maximum bit rate                 : 109 Kbps
Channel(s)                       : 2 channels
Channel positions                : L R
Sampling rate                    : 48.0 KHz
Resolution                       : 16 bits
Stream size                      : 76.0 MiB (4%)
Title                            : English
Language                         : English
